<svg xmlns="http://www.w3.org/2000/svg" width="85.902" height="85.902"><g fill="#3fafd4"><path data-name="Path 90" d="M78.217 68.86l-3.468-1.2a8.374 8.374 0 003.19-6.575v-2.546a8.387 8.387 0 10-16.774 0v2.542a8.374 8.374 0 003.19 6.575l-3.468 1.2a11.422 11.422 0 00-5.433 4h-9.368v-3.7a11.445 11.445 0 00-7.686-10.8l-3.468-1.2a8.374 8.374 0 003.19-6.575v-2.542a8.387 8.387 0 10-16.774 0v2.542a8.376 8.376 0 003.19 6.575l-3.468 1.2a11.445 11.445 0 00-7.686 10.8v3.7H1.271a1.271 1.271 0 00-1.27 1.271v10.5a1.271 1.271 0 001.271 1.271h52.862a1.159 1.159 0 01.339 0h30.159a1.271 1.271 0 001.271-1.271v-4.968a11.445 11.445 0 00-7.686-10.8zm-14.51-10.321a5.845 5.845 0 0111.691 0v2.542a5.845 5.845 0 11-11.691 0zm-39.817-10.5a5.845 5.845 0 0111.691 0v2.542a5.845 5.845 0 01-11.691 0zm8.511 10.924l1.235.429-3.9 6.768-3.9-6.768 1.235-.429zm-16.475 10.2a8.9 8.9 0 015.978-8.4l1.486-.516 5.244 9.1a1.271 1.271 0 002.2 0l5.244-9.1 1.486.516a8.9 8.9 0 015.977 8.4v3.7H15.927zM2.542 75.398H54.03a11.4 11.4 0 00-.828 4.266v3.7H2.542zm80.819 7.963H55.744v-3.7a8.9 8.9 0 015.977-8.4l5.165-1.793h5.332l5.165 1.793a8.9 8.9 0 015.978 8.4zm0 0"/><path data-name="Path 91" d="M77.855 9.149H64.946a1.271 1.271 0 100 2.542h12.909a5.513 5.513 0 015.506 5.509v17.618a5.513 5.513 0 01-5.507 5.507H60.401a1.271 1.271 0 00-1.269 1.275V47l-6.3-6.3a1.27 1.27 0 00-.9-.372H41.601a5.513 5.513 0 01-5.507-5.507V17.2a5.513 5.513 0 015.507-5.509h17.4a1.271 1.271 0 100-2.542h-6.65v-1.1A8.057 8.057 0 0044.307 0H8.049A8.057 8.057 0 00.001 8.048v2.81a1.271 1.271 0 102.542 0v-2.81a5.513 5.513 0 015.506-5.507h36.258a5.513 5.513 0 015.507 5.507v1.1h-8.213a8.057 8.057 0 00-8.053 8.052v13.975h-13.3a1.271 1.271 0 00-1.271 1.271v5.4l-6.3-6.3a1.27 1.27 0 00-.9-.372H8.049a5.513 5.513 0 01-5.507-5.507v-8.9a1.271 1.271 0 10-2.542 0v8.9a8.057 8.057 0 008.048 8.048h3.2l8.1 8.1a1.271 1.271 0 002.169-.9v-7.2h12.03v1.1a8.057 8.057 0 008.054 8.051h9.8l8.1 8.1a1.271 1.271 0 002.169-.9v-7.2h16.185a8.057 8.057 0 008.046-8.048V17.2a8.057 8.057 0 00-8.048-8.048zm0 0"/></g></svg>