<svg xmlns="http://www.w3.org/2000/svg" width="85.902" height="85.902"><g data-name="Group 93"><g data-name="Group 92"><path data-name="Path 83" d="M84.471 0H1.432A1.431 1.431 0 000 1.431v28.635h2.863V2.863h80.176v31.5h-50.11v2.863h51.542a1.431 1.431 0 001.429-1.433V1.432A1.431 1.431 0 0084.471 0z" fill="#3fafd4"/></g></g><g data-name="Group 95"><g data-name="Group 94"><path data-name="Rectangle 41" fill="#3fafd4" d="M47.246 7.159H75.88v2.863H47.246z"/></g></g><g data-name="Group 97"><g data-name="Group 96"><path data-name="Rectangle 42" fill="#3fafd4" d="M51.541 15.749h28.634v2.863H51.541z"/></g></g><g data-name="Group 99"><g data-name="Group 98"><path data-name="Rectangle 43" fill="#3fafd4" d="M45.815 24.339h28.634v2.863H45.815z"/></g></g><g data-name="Group 101"><g data-name="Group 100"><path data-name="Path 84" d="M45.7 12.344a4.62 4.62 0 00-6.041-2.491l-.12.052-11.608 6.022a7.08 7.08 0 00.7-3.041 7.159 7.159 0 10-12.849 4.3h-.06A9.825 9.825 0 006.6 23.537L2.778 36.71a4.586 4.586 0 108.611 3.154l1.5-4.765V55.82a7.137 7.137 0 00-9.294 10.807A6.6 6.6 0 000 72.473v12a1.431 1.431 0 001.431 1.432h14.318a1.431 1.431 0 001.432-1.431v-12a6.581 6.581 0 00-2.555-5.183h10.836a6.579 6.579 0 00-2.555 5.183v12a1.431 1.431 0 001.431 1.432h14.318a1.431 1.431 0 001.432-1.431v-12a6.6 6.6 0 00-3.595-5.848 7.152 7.152 0 00-6.427-12.13V25.209l13.143-6.824a4.62 4.62 0 002.491-6.041zM21.476 8.59a4.3 4.3 0 11-4.3 4.3 4.3 4.3 0 014.3-4.3zM8.59 57.215a4.3 4.3 0 11-4.3 4.3 4.3 4.3 0 014.3-4.3zm5.727 25.824H2.863V72.473a3.756 3.756 0 013.752-3.746h3.95a3.757 3.757 0 013.752 3.751zm22.907-10.566v10.566H25.771V72.473a3.756 3.756 0 013.752-3.746h3.95a3.756 3.756 0 013.751 3.746zM31.5 57.215a4.3 4.3 0 11-4.3 4.3 4.3 4.3 0 014.3-4.3zm11.581-42.483A1.841 1.841 0 0142 15.792l-14.025 7.276a1.432 1.432 0 00-.773 1.271V55.82a7.062 7.062 0 00-2.227 8.607h-2.068V40.088h-2.863v24.339h-4.931a7.092 7.092 0 00.63-2.863h.005V25.771a1.432 1.432 0 00-2.8-.429l-4.275 13.6a1.722 1.722 0 01-2.388.952 1.757 1.757 0 01-.8-2.273l3.825-13.17a6.917 6.917 0 016.415-4.407h10.138a1.426 1.426 0 00.659-.161l14.23-7.386a1.762 1.762 0 012.253.835 1.742 1.742 0 01.076 1.4z" fill="#3fafd4"/></g></g><g data-name="Group 103"><g data-name="Group 102"><path data-name="Path 85" d="M59.401 66.619a7.159 7.159 0 10-10.123-.132q.065.067.132.132a6.6 6.6 0 00-3.595 5.855v12a1.431 1.431 0 001.431 1.432h14.318a1.431 1.431 0 001.432-1.431v-12a6.6 6.6 0 00-3.595-5.856zm-5-9.407a4.3 4.3 0 11-4.3 4.3 4.3 4.3 0 014.304-4.293zm5.727 25.824h-11.45V72.474a3.756 3.756 0 013.752-3.755h3.95a3.757 3.757 0 013.752 3.751z" fill="#3fafd4"/></g></g><g data-name="Group 105"><g data-name="Group 104"><path data-name="Path 86" d="M82.308 66.619a7.159 7.159 0 10-10.123-.132q.065.067.132.132a6.6 6.6 0 00-3.595 5.855v12a1.431 1.431 0 001.431 1.432h14.318a1.431 1.431 0 001.432-1.431v-12a6.6 6.6 0 00-3.595-5.856zm-5-9.407a4.3 4.3 0 11-4.3 4.3 4.3 4.3 0 014.304-4.293zm5.727 25.824h-11.45V72.474a3.756 3.756 0 013.752-3.755h3.95a3.757 3.757 0 013.752 3.751z" fill="#3fafd4"/></g></g></svg>