<svg xmlns="http://www.w3.org/2000/svg" width="87.223" height="85.903"><g fill="#3fafd4"><path data-name="Path 87" d="M85.162 40.13a7.9 7.9 0 00-4.873-2.042 6.976 6.976 0 00-5.36 2.04l-9.7 9.6a6.438 6.438 0 00-.656-.936 6.287 6.287 0 00-4.912-2.2H46.086a27.846 27.846 0 01-7.423-.986 18.263 18.263 0 00-17.037 3.6 24.779 24.779 0 00-4.437 4.762l-2.434-2.362a1.73 1.73 0 00-1.2-.487h-.011a1.734 1.734 0 00-1.23.528L.48 63.937a1.717 1.717 0 00.053 2.433l20.015 19.058a1.715 1.715 0 002.412-.045l11.723-12.027a1.725 1.725 0 00-.034-2.442l-1.021-.99 2.336-.263a37.134 37.134 0 014.274-.248h20.661a15.508 15.508 0 008.474-2.182l.056-.037a11.435 11.435 0 002.189-1.987l13.92-16.376c2.382-2.8 2.233-6.3-.371-8.7zM21.686 81.774l-17.538-16.7 9.448-9.808 17.435 16.92zm61.233-35.165l-13.92 16.377a8.021 8.021 0 01-1.507 1.373 12.2 12.2 0 01-6.6 1.624H40.238a40.514 40.514 0 00-4.663.27l-5.136.576-10.754-10.435a21.4 21.4 0 014.112-4.524 14.77 14.77 0 0113.951-2.956 31.273 31.273 0 008.338 1.111h13.577a3.1 3.1 0 013.089 3.36 3.716 3.716 0 01-.8 2.381 2.916 2.916 0 01-2.34.982H47.79a1.716 1.716 0 000 3.432h11.819a6.363 6.363 0 004.955-2.192 7.047 7.047 0 001.616-4.372l11.17-11.053a4.017 4.017 0 015.486.091c.721.665 1.692 2.064.083 3.956zm0 0"/><path data-name="Path 88" d="M42.439 58.007a1.716 1.716 0 10-3.341.783l.016.07a1.717 1.717 0 001.669 1.324 1.738 1.738 0 00.393-.045 1.716 1.716 0 001.279-2.062zm0 0"/><path data-name="Path 89" d="M11.597 36.2h16.72a4.129 4.129 0 002.435-.793 4.129 4.129 0 002.438.795h16.72a4.129 4.129 0 002.438-.795 4.129 4.129 0 002.438.795h16.719a4.159 4.159 0 004.154-4.154v-7.8a9 9 0 00-4.893-8.044 9.9 9.9 0 10-15.24 0 8.988 8.988 0 00-3.174 2.726 8.971 8.971 0 00-3.178-2.724 9.9 9.9 0 10-15.24 0 8.971 8.971 0 00-3.182 2.725 8.979 8.979 0 00-3.178-2.725 9.9 9.9 0 10-15.24 0A9 9 0 007.44 24.25v7.8a4.16 4.16 0 004.157 4.15zM63.152 3.432A6.466 6.466 0 1156.684 9.9a6.473 6.473 0 016.468-6.468zm-4.458 15.3a9.862 9.862 0 008.915 0 5.575 5.575 0 014.625 5.52v7.8a.723.723 0 01-.723.723H54.789a.723.723 0 01-.722-.723v-7.8a5.575 5.575 0 014.624-5.52zm-17.142-15.3A6.466 6.466 0 1135.087 9.9a6.473 6.473 0 016.465-6.468zm-4.457 15.3a9.862 9.862 0 008.915 0 5.576 5.576 0 014.625 5.52v7.8a.723.723 0 01-.723.723H33.194a.723.723 0 01-.723-.723v-7.8a5.576 5.576 0 014.625-5.52zm-17.143-15.3A6.466 6.466 0 1113.491 9.9a6.473 6.473 0 016.461-6.468zM10.875 24.25a5.576 5.576 0 014.625-5.52 9.862 9.862 0 008.915 0 5.575 5.575 0 014.625 5.52v7.8a.723.723 0 01-.723.723h-16.72a.723.723 0 01-.723-.723zm0 0"/></g></svg>