<svg xmlns="http://www.w3.org/2000/svg" width="433" height="305.166"><g fill="#3fafd4"><path data-name="Path 75" d="M214.814 75.734a37.194 37.194 0 10-37.185-37.194 37.236 37.236 0 0037.185 37.194z"/><path data-name="Path 76" d="M275.366 97.692c26.641-24.38 29.345-29.735 30.8-32.613 6.364-12.6 9.561-41.921 10.137-47.671A15.847 15.847 0 00302.133.08a16.052 16.052 0 00-1.579-.079 15.782 15.782 0 00-15.75 14.246c-1.338 13.3-4.286 30.843-6.741 36.233-3.1 4.462-18.225 18.772-34.172 33h-54.779c-15.947-14.233-31.071-28.543-34.174-33.005-2.455-5.383-5.4-22.93-6.739-36.228a15.83 15.83 0 10-31.5 3.156c.576 5.75 3.773 35.073 10.137 47.671 1.452 2.876 4.155 8.23 30.8 32.614 7.4 6.773 14.471 13.031 19.077 17.069V288.7a16.466 16.466 0 1032.931 0v-91.218h10.405V288.7a16.466 16.466 0 0032.932 0l-.055-171a1249.535 1249.535 0 0022.44-20.008z"/><path data-name="Path 77" d="M135.092 139.322a11.263 11.263 0 00-10.108-6.766l-39.874-.007a11.227 11.227 0 00-8.58 3.979l-2.113-4.884a9.981 9.981 0 00-9.169-6.022H29.236a9.142 9.142 0 00-9.168 6.022L.826 176.138a9.982 9.982 0 1018.323 7.926l4.044-9.351v86.153a10.994 10.994 0 0021.988 0v-56.449h4.637v56.448a10.994 10.994 0 0021.988 0v-59.538a11.2 11.2 0 001.961-3.047l4.491-10.388c.019.014.037.031.056.046v96.719a12.364 12.364 0 0024.729 0v-64.162h5.214v64.162a12.364 12.364 0 0024.728 0l.029-93.561 3.106 7.185a11.227 11.227 0 1020.61-8.913z"/><path data-name="Path 78" d="M106.772 128.434a28.3 28.3 0 10-28.291-28.3 28.33 28.33 0 0028.291 28.3z"/><path data-name="Path 79" d="M48.493 121.96a25.16 25.16 0 10-25.155-25.161 25.189 25.189 0 0025.155 25.161z"/><path data-name="Path 80" d="M297.932 100.135a28.295 28.295 0 1028.3-28.3 28.33 28.33 0 00-28.3 28.3z"/><path data-name="Path 81" d="M432.175 176.138l-19.242-44.5a9.977 9.977 0 00-9.168-6.022h-36.013a9.983 9.983 0 00-9.169 6.022l-2.113 4.889a11.227 11.227 0 00-8.58-3.979l-39.874.008a10.615 10.615 0 00-10.108 6.766l-21.638 50.044a11.227 11.227 0 1020.61 8.913l3.107-7.185.029 93.561a12.364 12.364 0 0024.729 0v-64.161h5.214v64.163a12.364 12.364 0 0024.729 0v-96.721l.056-.046 4.491 10.388a11.222 11.222 0 001.961 3.047v59.538a10.994 10.994 0 0021.988 0v-56.448h4.637v56.448a10.994 10.994 0 0021.988 0v-86.152l4.044 9.351a9.982 9.982 0 0018.325-7.924z"/><path data-name="Path 82" d="M384.507 121.96a25.16 25.16 0 10-25.161-25.161 25.186 25.186 0 0025.161 25.161z"/></g></svg>