<svg xmlns="http://www.w3.org/2000/svg" width="24.556" height="24.5" viewBox="0 0 24.556 24.5">
  <g id="call-answer" transform="translate(0 -0.394)">
    <g id="Group_23" data-name="Group 23" transform="translate(0 0.394)">
      <g id="Group_22" data-name="Group 22">
        <path id="Path_29" data-name="Path 29" d="M24,19.772l-3.792-3.793a1.977,1.977,0,0,0-2.788.052l-1.911,1.91-.377-.21a19.012,19.012,0,0,1-4.6-3.324,19.118,19.118,0,0,1-3.33-4.6c-.071-.128-.139-.251-.206-.368l1.282-1.28.63-.631a1.976,1.976,0,0,0,.051-2.788L5.177.944A1.975,1.975,0,0,0,2.389,1L1.32,2.071,1.35,2.1A6.18,6.18,0,0,0,.469,3.654,6.44,6.44,0,0,0,.077,5.229c-.5,4.151,1.4,7.945,6.544,13.093,7.116,7.116,12.851,6.578,13.1,6.552a6.407,6.407,0,0,0,1.58-.4,6.159,6.159,0,0,0,1.548-.877l.023.021,1.083-1.06A1.979,1.979,0,0,0,24,19.772Z" transform="translate(0 -0.394)" fill="#fff"/>
      </g>
    </g>
  </g>
</svg>
