<svg xmlns="http://www.w3.org/2000/svg" width="480.004" height="471.945"><g fill="#3fafd4"><g data-name="Group 81"><path data-name="Path 19" d="M112 271.945v192a8 8 0 008 8h200a8 8 0 008-8v-56h-.734l46.445-116.117A32.083 32.083 0 00376 279.945v-8a40.05 40.05 0 00-40-40h-38.145l-4.8-24.3 2.945-.176-7.52-127.523H296a24 24 0 000-48H176a8 8 0 00-8 8v192h-16a40.05 40.05 0 00-40 40zm64 184v-152h-16v152h-32v-184a24 24 0 0124-24h83.3l29.223 157.832a32.148 32.148 0 0028.32 26.008 29.273 29.273 0 003.152.16 31.818 31.818 0 0016-4.352v28.352zm53.375-240l2.961 16H216v-16zm90.625 32h16a24 24 0 0124 24v8a15.861 15.861 0 01-1.152 5.953l-48 120a16 16 0 01-30.582-3.031l-35.633-192.4a16.007 16.007 0 0131.5-5.719l28 140.8 15.68-3.121-18.77-94.48zm-41.6-66.816a31.913 31.913 0 00-49.047 18.816H184v-65.473a23.714 23.714 0 008 1.473 24 24 0 0024-24v-32h56.457zM184 79.945h16v32a8 8 0 01-16 0zm0-32h112a8 8 0 010 16H184zm0 168h16v16h-16zm0 0"/><path data-name="Path 20" d="M228.426 168.793l32-16 7.156 14.313-32 16zm0 0"/></g><g data-name="Group 40"><path data-name="Path 21" d="M376.3 36.1a24.143 24.143 0 0120.75-20 24.009 24.009 0 0115.219 44.465A40.387 40.387 0 00392 95.332v8.613h16v-8.613a24.539 24.539 0 0112.457-20.984 40 40 0 10-60-40.664 40.971 40.971 0 00-.457 6.261h16a25.373 25.373 0 01.3-3.848zm0 0"/><path data-name="Path 22" d="M392 119.945h16v16h-16zm0 0"/><path data-name="Path 23" d="M21.719 139.684a16 16 0 0113.25-3.473 16.2 16.2 0 0112.8 12.8 15.96 15.96 0 01-8 16.992A29.169 29.169 0 0024 191.946l16-.7a13.181 13.181 0 017.441-11.266A32 32 0 100 151.946h16a16 16 0 015.719-12.262zm0 0"/><path data-name="Path 24" d="M24 207.945h16v16H24zm0 0"/><path data-name="Path 25" d="M416 239.945h16a16 16 0 0118.969-15.734 16.2 16.2 0 0112.8 12.8 15.96 15.96 0 01-8 16.992A29.169 29.169 0 00440 279.945l16-.7a13.181 13.181 0 017.441-11.266A32 32 0 10416 239.945zm0 0"/><path data-name="Path 26" d="M440 295.945h16v16h-16zm0 0"/><path data-name="Path 27" d="M104 31.945a8 8 0 014.727 14.465A29.265 29.265 0 0096 69.844v2.1h16v-2.1a13.721 13.721 0 016.184-10.544A24 24 0 1080 39.945h16a8 8 0 018-8zm0 0"/><path data-name="Path 28" d="M96 87.449h16v16H96zm0 0"/></g></g></svg>